<svg xmlns="http://www.w3.org/2000/svg" version="1.1" xmlns:xlink="http://www.w3.org/1999/xlink" xmlns:svgjs="http://svgjs.dev/svgjs" width="1280" height="720" preserveAspectRatio="none" viewBox="0 0 1280 720"><g mask="url(&quot;#SvgjsMask1033&quot;)" fill="none"><rect width="1280" height="720" x="0" y="0" fill="rgba(255, 255, 255, 1)"></rect><path d="M180 172.65C168.49 172.65 156 176.79 156 180C156 183.15 168.29 185.37 180 185.37C186.09 185.37 191.61 183.07 191.61 180C191.61 176.71 186.3 172.65 180 172.65" stroke="rgba(0, 0, 0, 1)" stroke-width="2"></path><path d="M540 141.43C526.81 141.43 516.74 156.93 509.14 180C480.74 266.22 456.94 291.44 468 360C472.37 387.06 505.83 371.25 540 371.25C547.46 371.25 550.51 367.76 551.25 360C559.66 272.14 562.86 268.35 558.31 180C557.23 159.06 551.4 141.43 540 141.43" stroke="rgba(0, 0, 0, 1)" stroke-width="2"></path><path d="M1385.22 0C1418.43 53.13 1356.69 95.25 1372.5 180C1384.08 242.09 1417.52 233.75 1440 293.68C1451.27 323.75 1440 326.84 1440 360C1440 450 1440 450 1440 540C1440 630 1485 675 1440 720C1395 765 1350 720 1260 720C1170 720 1170 720 1080 720C990 720 990 720 900 720C810 720 810 720 720 720C630 720 630 720 540 720C450 720 450 720 360 720C270 720 270 720 180 720C90 720 45 765 0 720C-45 675 0 630 0 540C0 486 -13.45 481.89 0 432C10.82 391.89 48.54 398.43 48.54 360C48.54 304.05 16.18 303.23 0 243.24C-8.09 213.23 0 211.62 0 180C0 90 -45 45 0 0C45 -45 90 0 180 0C270 0 270 0 360 0C450 0 450 0 540 0C630 0 630 0 720 0C810 0 810 0 900 0C990 0 990 0 1080 0C1170 0 1170 0 1260 0C1322.61 0 1362.18 -36.87 1385.22 0" stroke="rgba(0, 0, 0, 1)" stroke-width="2"></path><path d="M720 488.57C695.4 488.57 668.57 517.84 668.57 540C668.57 557.96 694.84 568.8 720 568.8C742.16 568.8 763.2 557.49 763.2 540C763.2 517.37 742.72 488.57 720 488.57" stroke="rgba(0, 0, 0, 1)" stroke-width="2"></path><path d="M1260 464.4C1224.16 464.4 1188.68 497.88 1188.68 540C1188.68 598.68 1224.08 666 1260 666C1296.09 666 1332.69 598.57 1332.69 540C1332.69 497.77 1296.17 464.4 1260 464.4" stroke="rgba(0, 0, 0, 1)" stroke-width="2"></path><path d="M180 80.82C95.25 69.5 52.38 158.52 0 135C-37.62 118.11 -38.57 28.93 0 0C51.43 -38.57 90 0 180 0C270 0 270 0 360 0C438.75 0 513.28 -36.95 517.5 0C523.56 53.05 448.9 89.9 380.57 180C370.15 193.74 370.69 207.69 360 207.69C348.79 207.69 351.45 190.34 336.77 180C261.45 126.91 263.64 92 180 80.82" stroke="rgba(0, 0, 0, 1)" stroke-width="2"></path><path d="M634.58 180C641.51 95.56 669.02 89.69 720 17.42C732.5 -0.31 739.45 2.14 761.54 0C829.45 -6.57 830.77 0 900 0C952.94 0 980.95 -33.05 1005.88 0C1048.84 56.95 1012.67 92.43 1035.79 180C1049.73 232.83 1050.33 280.8 1080 280.8C1115.88 280.8 1123.99 230.85 1166.9 180C1213.99 124.2 1222.89 67.5 1260 67.5C1290.53 67.5 1292.59 121.47 1302.19 180C1316.59 267.72 1324.5 283.96 1308 360C1303.41 381.16 1278.42 358.16 1260 374.4C1176.31 448.16 1116.71 449.94 1103.77 540C1091.88 622.74 1217.66 664.55 1210.34 720C1205.78 754.55 1145.17 720 1080 720C990 720 990 720 900 720C810 720 810 720 720 720C660 720 600 740.21 600 720C600 694.61 658.61 672.44 720 628.8C785.21 582.44 853.2 593.93 853.2 540C853.2 470.24 788.9 458.31 720 381.43C708.24 368.31 698.61 375.88 691.88 360C655.9 275.16 627.45 266.85 634.58 180" stroke="rgba(0, 0, 0, 1)" stroke-width="2"></path><path d="M99.1 360C137.93 305.11 134.73 252.54 180 252.54C233.25 252.54 239.01 305.3 296.13 360C329.01 391.49 321.84 401.15 360 424.92C443.77 477.09 454.42 462.99 540 511.88C555.14 520.53 561.43 525.23 561.43 540C561.43 558.04 550.01 558.37 540 577.5C502.91 648.37 521.12 677.34 467.23 720C431.12 748.59 413.62 720 360 720C270 720 270 720 180 720C90 720 45 765 0 720C-45 675 0 630 0 540C0 523.5 -7.78 521.12 0 507C41.77 431.12 47.93 432.34 99.1 360" stroke="rgba(0, 0, 0, 1)" stroke-width="2"></path><path d="M1419.23 540C1428.86 508 1434.68 476.47 1440 476.47C1445.06 476.47 1440 508.24 1440 540C1440 630 1466.05 656.05 1440 720C1429.39 746.05 1369.59 745.3 1366.67 720C1359.2 655.3 1392.2 629.77 1419.23 540" stroke="rgba(0, 0, 0, 1)" stroke-width="2"></path><path d="M141.43 0C141.43 10.52 55.25 41.25 0 41.25C-15.47 41.25 -15.97 4.66 0 0C54.75 -15.97 141.43 -10.1 141.43 0" stroke="rgba(0, 0, 0, 1)" stroke-width="2"></path><path d="M710.85 180C710.85 171.03 711.42 167.03 720 162.58C806 117.94 824.81 76.29 900 81.82C943.23 85 954.56 127.22 956.84 180C960.56 266.31 937.86 271.79 912 360C909.44 368.71 905.45 373.85 900 373.85C895.16 373.85 897.33 365.58 891.43 360C807.33 280.4 801.45 284.67 720 203.48C711.16 194.67 710.85 191.48 710.85 180" stroke="rgba(0, 0, 0, 1)" stroke-width="2"></path><path d="M149.66 360C149.66 336.75 163.02 319.7 180 319.7C199.97 319.7 223.55 334.48 223.55 360C223.55 416 198.75 482.73 180 482.73C161.8 482.73 149.66 418.27 149.66 360" stroke="rgba(0, 0, 0, 1)" stroke-width="2"></path><path d="M240 540C246.16 497.1 301.83 498.69 360 498.69C398.89 498.69 432.35 505.91 434.12 540C438.1 616.57 406.44 635.12 371.49 720C369.38 725.12 365.75 720 360 720C344.12 720 336.45 732.31 328.24 720C276.45 642.31 230.28 607.76 240 540" stroke="rgba(0, 0, 0, 1)" stroke-width="2"></path><path d="M678.95 720C678.95 711.31 695.4 692.81 720 688.8C805.92 674.81 811.75 697.78 900 684C991.75 669.67 1004.7 620.92 1080 632.57C1121.08 638.92 1132.76 691.18 1132.76 720C1132.76 734.89 1106.38 720 1080 720C990 720 990 720 900 720C810 720 810 720 720 720C699.47 720 678.95 726.91 678.95 720" stroke="rgba(0, 0, 0, 1)" stroke-width="2"></path></g><defs><mask id="SvgjsMask1033"><rect width="1280" height="720" fill="#ffffff"></rect></mask></defs></svg>