<svg width="34" height="39" viewBox="0 0 34 39" fill="none" xmlns="http://www.w3.org/2000/svg">
<path d="M0 20.0874C0 16.1719 3.14945 12.9977 7.03448 12.9977H9.37931C13.2643 12.9977 16.4138 16.1719 16.4138 20.0874V22.4506C16.4138 26.3661 13.2643 29.5403 9.37931 29.5403H7.03448C3.14944 29.5403 0 26.3661 0 22.4506V20.0874Z" fill="#212121"/>
<path d="M17.5862 20.0874C17.5862 16.1719 20.7357 12.9977 24.6207 12.9977H26.9655C30.8506 12.9977 34 16.1719 34 20.0874V22.4506C34 26.3661 30.8506 29.5403 26.9655 29.5403H24.6207C20.7357 29.5403 17.5862 26.3661 17.5862 22.4506V20.0874Z" fill="#212121"/>
<path d="M9.37931 7.08966C9.37931 3.17415 12.5288 0 16.4138 0H18.7586C22.6437 0 25.7931 3.17415 25.7931 7.08966V9.45288C25.7931 13.3684 22.6437 16.5425 18.7586 16.5425H16.4138C12.5288 16.5425 9.37931 13.3684 9.37931 9.45288V7.08966Z" fill="#212121"/>
<path d="M9.37931 14.1793H25.7931V28.3586H9.37931V14.1793Z" fill="#212121"/>
<path d="M15.2414 20.0874H17.5862V36.6299H15.2414V20.0874Z" fill="#212121"/>
<path d="M15.2155 36.4662C14.9225 35.8843 15.153 35.1731 15.7304 34.8778C16.3079 34.5825 17.0135 34.8149 17.3065 35.3968L18.2564 37.2834C18.5494 37.8654 18.3189 38.5765 17.7414 38.8718C17.164 39.1671 16.4584 38.9348 16.1654 38.3528L15.2155 36.4662Z" fill="#212121"/>
</svg>
