<svg width="1920" height="2289" viewBox="0 0 1920 2289" fill="none" xmlns="http://www.w3.org/2000/svg">
<path fill-rule="evenodd" clip-rule="evenodd" d="M-6 0.779785V2288.5H2075V305.356L-6 0.779785Z" fill="url(#paint0_radial_566_27)"/>
<path fill-rule="evenodd" clip-rule="evenodd" d="M-6 0.779785V2288.5H2075V305.356L-6 0.779785Z" fill="url(#paint1_angular_566_27)" fill-opacity="0.4"/>
<path fill-rule="evenodd" clip-rule="evenodd" d="M-6 0.779785V2288.5H2075V305.356L-6 0.779785Z" fill="url(#paint2_diamond_566_27)" fill-opacity="0.15"/>
<path fill-rule="evenodd" clip-rule="evenodd" d="M-6 0.779785V2288.5H2075V305.356L-6 0.779785Z" fill="black"/>
<path fill-rule="evenodd" clip-rule="evenodd" d="M2128.87 1515.52L1619.4 1228L1021.18 2288H1692.91L2128.87 1515.52Z" fill="#FF0000"/>
<rect x="-373.717" y="644.086" width="3291.84" height="300.29" transform="rotate(0.298291 -373.717 644.086)" fill="#FF0000"/>
<rect x="-225.542" y="1673" width="425.147" height="300.29" transform="rotate(14.7506 -225.542 1673)" fill="#FF0000"/>
<rect x="-5.54248" y="833" width="2777.5" height="300.29" transform="rotate(14.7506 -5.54248 833)" fill="#FF0000"/>
<rect x="1452.23" y="383.656" width="425.147" height="300.29" transform="rotate(1.50186 1452.23 383.656)" fill="#FF0000"/>
<defs>
<radialGradient id="paint0_radial_566_27" cx="0" cy="0" r="1" gradientUnits="userSpaceOnUse" gradientTransform="translate(1034.5 1144.64) rotate(90) scale(1143.86 1040.5)">
<stop stop-color="#191919"/>
<stop offset="0.335" stop-color="#262525"/>
<stop offset="0.695" stop-color="#141313"/>
<stop offset="1"/>
</radialGradient>
<radialGradient id="paint1_angular_566_27" cx="0" cy="0" r="1" gradientUnits="userSpaceOnUse" gradientTransform="translate(1034.5 1144.64) rotate(67.415) scale(1239.41 581.056)">
<stop stop-opacity="0"/>
<stop offset="1" stop-color="#F64BFF"/>
</radialGradient>
<radialGradient id="paint2_diamond_566_27" cx="0" cy="0" r="1" gradientUnits="userSpaceOnUse" gradientTransform="translate(1034.5 1144.64) rotate(90) scale(1143.86 1040.5)">
<stop stop-opacity="0"/>
<stop offset="1" stop-color="#911B1B"/>
</radialGradient>
</defs>
</svg>
