<svg width="394" height="60" viewBox="0 0 394 60" fill="none" xmlns="http://www.w3.org/2000/svg">
<rect x="378.5" y="0.5" width="15" height="59" rx="5.5" fill="#545454" stroke="black"/>
<rect x="378" width="5" height="60" rx="2.5" fill="#212121"/>
<rect x="389" width="5" height="60" rx="2.5" fill="#212121"/>
<path d="M44 27.768C45.3333 28.5378 45.3333 30.4622 44 31.232L14.75 48.1195C13.4167 48.8894 11.75 47.9271 11.75 46.3875V12.6125C11.75 11.0729 13.4167 10.1107 14.75 10.8805L44 27.768Z" fill="#212121"/>
<rect x="41" y="10" width="6" height="39" rx="3" fill="#212121"/>
<path d="M66 30.0874C66 26.1719 69.1494 22.9977 73.0345 22.9977H75.3793C79.2643 22.9977 82.4138 26.1719 82.4138 30.0874V32.4506C82.4138 36.3661 79.2643 39.5403 75.3793 39.5403H73.0345C69.1494 39.5403 66 36.3661 66 32.4506V30.0874Z" fill="#212121"/>
<path d="M83.5862 30.0874C83.5862 26.1719 86.7357 22.9977 90.6207 22.9977H92.9655C96.8506 22.9977 100 26.1719 100 30.0874V32.4506C100 36.3661 96.8506 39.5403 92.9655 39.5403H90.6207C86.7357 39.5403 83.5862 36.3661 83.5862 32.4506V30.0874Z" fill="#212121"/>
<path d="M75.3793 17.0897C75.3793 13.1741 78.5288 10 82.4138 10H84.7586C88.6437 10 91.7931 13.1741 91.7931 17.0897V19.4529C91.7931 23.3684 88.6437 26.5425 84.7586 26.5425H82.4138C78.5288 26.5425 75.3793 23.3684 75.3793 19.4529V17.0897Z" fill="#212121"/>
<path d="M75.3793 24.1793H91.7931V38.3586H75.3793V24.1793Z" fill="#212121"/>
<path d="M81.2414 30.0874H83.5862V46.6299H81.2414V30.0874Z" fill="#212121"/>
<path d="M81.2155 46.4662C80.9225 45.8843 81.153 45.1731 81.7304 44.8778C82.3079 44.5825 83.0135 44.8149 83.3065 45.3968L84.2564 47.2834C84.5494 47.8654 84.3189 48.5765 83.7414 48.8718C83.164 49.1671 82.4584 48.9348 82.1654 48.3528L81.2155 46.4662Z" fill="#212121"/>
<path d="M123.614 41C123.337 41 123.094 40.9047 122.886 40.714C122.695 40.506 122.6 40.2633 122.6 39.986V21.708C122.6 21.4133 122.695 21.1707 122.886 20.98C123.094 20.7893 123.337 20.694 123.614 20.694C124.03 20.694 124.333 20.8673 124.524 21.214L133.286 38.634H132.402L141.008 21.214C141.216 20.8673 141.519 20.694 141.918 20.694C142.195 20.694 142.429 20.7893 142.62 20.98C142.811 21.1707 142.906 21.4133 142.906 21.708V39.986C142.906 40.2633 142.811 40.506 142.62 40.714C142.429 40.9047 142.195 41 141.918 41C141.623 41 141.372 40.9047 141.164 40.714C140.973 40.506 140.878 40.2633 140.878 39.986V24.334L141.32 24.36L133.65 40.038C133.459 40.3673 133.165 40.532 132.766 40.532C132.333 40.532 132.021 40.324 131.83 39.908L124.108 24.464L124.628 24.334V39.986C124.628 40.2633 124.524 40.506 124.316 40.714C124.125 40.9047 123.891 41 123.614 41ZM154.124 41.13C152.789 41.13 151.593 40.818 150.536 40.194C149.478 39.5527 148.638 38.686 148.014 37.594C147.407 36.502 147.104 35.2713 147.104 33.902C147.104 32.5153 147.416 31.276 148.04 30.184C148.681 29.092 149.548 28.234 150.64 27.61C151.732 26.9687 152.962 26.648 154.332 26.648C155.701 26.648 156.923 26.9687 157.998 27.61C159.09 28.234 159.948 29.092 160.572 30.184C161.213 31.276 161.542 32.5153 161.56 33.902L160.754 34.526C160.754 35.774 160.459 36.9007 159.87 37.906C159.298 38.894 158.509 39.6827 157.504 40.272C156.516 40.844 155.389 41.13 154.124 41.13ZM154.332 39.31C155.337 39.31 156.23 39.076 157.01 38.608C157.807 38.14 158.431 37.4987 158.882 36.684C159.35 35.852 159.584 34.9247 159.584 33.902C159.584 32.862 159.35 31.9347 158.882 31.12C158.431 30.3053 157.807 29.664 157.01 29.196C156.23 28.7107 155.337 28.468 154.332 28.468C153.344 28.468 152.451 28.7107 151.654 29.196C150.856 29.664 150.224 30.3053 149.756 31.12C149.288 31.9347 149.054 32.862 149.054 33.902C149.054 34.9247 149.288 35.852 149.756 36.684C150.224 37.4987 150.856 38.14 151.654 38.608C152.451 39.076 153.344 39.31 154.332 39.31ZM160.546 41C160.251 41 160.008 40.9133 159.818 40.74C159.627 40.5493 159.532 40.3067 159.532 40.012V35.566L160.026 33.512L161.56 33.902V40.012C161.56 40.3067 161.464 40.5493 161.274 40.74C161.083 40.9133 160.84 41 160.546 41ZM167.091 36.242L165.869 34.916L174.761 26.882C174.969 26.6913 175.186 26.6047 175.411 26.622C175.637 26.622 175.845 26.726 176.035 26.934C176.226 27.142 176.313 27.3673 176.295 27.61C176.295 27.8353 176.191 28.0347 175.983 28.208L167.091 36.242ZM166.441 41C166.147 41 165.904 40.9133 165.713 40.74C165.54 40.5493 165.453 40.3067 165.453 40.012V21.682C165.453 21.3873 165.54 21.1533 165.713 20.98C165.904 20.7893 166.147 20.694 166.441 20.694C166.736 20.694 166.97 20.7893 167.143 20.98C167.334 21.1533 167.429 21.3873 167.429 21.682V40.012C167.429 40.3067 167.334 40.5493 167.143 40.74C166.97 40.9133 166.736 41 166.441 41ZM176.061 40.87C175.836 41.0607 175.602 41.1387 175.359 41.104C175.117 41.0867 174.909 40.9653 174.735 40.74L168.937 33.616L170.341 32.368L176.191 39.57C176.365 39.778 176.443 40.0033 176.425 40.246C176.408 40.4713 176.287 40.6793 176.061 40.87ZM185.298 41.13C184.276 41.13 183.262 40.9567 182.256 40.61C181.251 40.2633 180.436 39.7433 179.812 39.05C179.622 38.842 179.544 38.608 179.578 38.348C179.613 38.088 179.743 37.8627 179.968 37.672C180.211 37.4987 180.462 37.4293 180.722 37.464C180.982 37.4987 181.199 37.6113 181.372 37.802C181.788 38.2873 182.334 38.66 183.01 38.92C183.704 39.18 184.466 39.31 185.298 39.31C186.581 39.31 187.508 39.0933 188.08 38.66C188.652 38.2093 188.947 37.672 188.964 37.048C188.964 36.424 188.67 35.9127 188.08 35.514C187.491 35.098 186.52 34.7773 185.168 34.552C183.418 34.2747 182.135 33.7893 181.32 33.096C180.506 32.4027 180.098 31.5793 180.098 30.626C180.098 29.742 180.332 29.0053 180.8 28.416C181.268 27.8267 181.892 27.3847 182.672 27.09C183.452 26.7953 184.31 26.648 185.246 26.648C186.408 26.648 187.404 26.8473 188.236 27.246C189.086 27.6447 189.77 28.182 190.29 28.858C190.464 29.0833 190.533 29.3173 190.498 29.56C190.464 29.8027 190.325 30.002 190.082 30.158C189.874 30.2793 189.632 30.3227 189.354 30.288C189.094 30.236 188.869 30.106 188.678 29.898C188.245 29.3953 187.742 29.0313 187.17 28.806C186.598 28.5633 185.94 28.442 185.194 28.442C184.241 28.442 183.478 28.6413 182.906 29.04C182.334 29.4213 182.048 29.9067 182.048 30.496C182.048 30.8947 182.152 31.2413 182.36 31.536C182.586 31.8307 182.958 32.0907 183.478 32.316C184.016 32.5413 184.761 32.732 185.714 32.888C187.014 33.096 188.037 33.408 188.782 33.824C189.545 34.2227 190.082 34.6993 190.394 35.254C190.724 35.7913 190.888 36.3807 190.888 37.022C190.888 37.8367 190.646 38.556 190.16 39.18C189.692 39.7867 189.034 40.2633 188.184 40.61C187.352 40.9567 186.39 41.13 185.298 41.13ZM195.778 41C195.466 41 195.214 40.9133 195.024 40.74C194.85 40.5493 194.764 40.298 194.764 39.986V27.792C194.764 27.48 194.85 27.2373 195.024 27.064C195.214 26.8733 195.466 26.778 195.778 26.778C196.072 26.778 196.306 26.8733 196.48 27.064C196.67 27.2373 196.766 27.48 196.766 27.792V39.986C196.766 40.298 196.67 40.5493 196.48 40.74C196.306 40.9133 196.072 41 195.778 41ZM195.752 24.074C195.37 24.074 195.041 23.9353 194.764 23.658C194.486 23.3807 194.348 23.0427 194.348 22.644C194.348 22.2107 194.486 21.8727 194.764 21.63C195.058 21.37 195.396 21.24 195.778 21.24C196.142 21.24 196.462 21.37 196.74 21.63C197.034 21.8727 197.182 22.2107 197.182 22.644C197.182 23.0427 197.043 23.3807 196.766 23.658C196.488 23.9353 196.15 24.074 195.752 24.074ZM203.501 36.242L202.279 34.916L211.171 26.882C211.379 26.6913 211.596 26.6047 211.821 26.622C212.047 26.622 212.255 26.726 212.445 26.934C212.636 27.142 212.723 27.3673 212.705 27.61C212.705 27.8353 212.601 28.0347 212.393 28.208L203.501 36.242ZM202.851 41C202.557 41 202.314 40.9133 202.123 40.74C201.95 40.5493 201.863 40.3067 201.863 40.012V21.682C201.863 21.3873 201.95 21.1533 202.123 20.98C202.314 20.7893 202.557 20.694 202.851 20.694C203.146 20.694 203.38 20.7893 203.553 20.98C203.744 21.1533 203.839 21.3873 203.839 21.682V40.012C203.839 40.3067 203.744 40.5493 203.553 40.74C203.38 40.9133 203.146 41 202.851 41ZM212.471 40.87C212.246 41.0607 212.012 41.1387 211.769 41.104C211.527 41.0867 211.319 40.9653 211.145 40.74L205.347 33.616L206.751 32.368L212.601 39.57C212.775 39.778 212.853 40.0033 212.835 40.246C212.818 40.4713 212.697 40.6793 212.471 40.87ZM221.708 41.13C220.686 41.13 219.672 40.9567 218.666 40.61C217.661 40.2633 216.846 39.7433 216.222 39.05C216.032 38.842 215.954 38.608 215.988 38.348C216.023 38.088 216.153 37.8627 216.378 37.672C216.621 37.4987 216.872 37.4293 217.132 37.464C217.392 37.4987 217.609 37.6113 217.782 37.802C218.198 38.2873 218.744 38.66 219.42 38.92C220.114 39.18 220.876 39.31 221.708 39.31C222.991 39.31 223.918 39.0933 224.49 38.66C225.062 38.2093 225.357 37.672 225.374 37.048C225.374 36.424 225.08 35.9127 224.49 35.514C223.901 35.098 222.93 34.7773 221.578 34.552C219.828 34.2747 218.545 33.7893 217.73 33.096C216.916 32.4027 216.508 31.5793 216.508 30.626C216.508 29.742 216.742 29.0053 217.21 28.416C217.678 27.8267 218.302 27.3847 219.082 27.09C219.862 26.7953 220.72 26.648 221.656 26.648C222.818 26.648 223.814 26.8473 224.646 27.246C225.496 27.6447 226.18 28.182 226.7 28.858C226.874 29.0833 226.943 29.3173 226.908 29.56C226.874 29.8027 226.735 30.002 226.492 30.158C226.284 30.2793 226.042 30.3227 225.764 30.288C225.504 30.236 225.279 30.106 225.088 29.898C224.655 29.3953 224.152 29.0313 223.58 28.806C223.008 28.5633 222.35 28.442 221.604 28.442C220.651 28.442 219.888 28.6413 219.316 29.04C218.744 29.4213 218.458 29.9067 218.458 30.496C218.458 30.8947 218.562 31.2413 218.77 31.536C218.996 31.8307 219.368 32.0907 219.888 32.316C220.426 32.5413 221.171 32.732 222.124 32.888C223.424 33.096 224.447 33.408 225.192 33.824C225.955 34.2227 226.492 34.6993 226.804 35.254C227.134 35.7913 227.298 36.3807 227.298 37.022C227.298 37.8367 227.056 38.556 226.57 39.18C226.102 39.7867 225.444 40.2633 224.594 40.61C223.762 40.9567 222.8 41.13 221.708 41.13Z" fill="black"/>
</svg>
