<svg width="394" height="60" viewBox="0 0 394 60" fill="none" xmlns="http://www.w3.org/2000/svg">
<rect x="378.5" y="0.5" width="15" height="59" rx="5.5" fill="#545454" stroke="black"/>
<rect x="378" width="5" height="60" rx="2.5" fill="#212121"/>
<rect x="389" width="5" height="60" rx="2.5" fill="#212121"/>
<path d="M44 27.768C45.3333 28.5378 45.3333 30.4622 44 31.232L14.75 48.1195C13.4167 48.8894 11.75 47.9271 11.75 46.3875V12.6125C11.75 11.0729 13.4167 10.1107 14.75 10.8805L44 27.768Z" fill="#212121"/>
<rect x="41" y="10" width="6" height="39" rx="3" fill="#212121"/>
<path d="M66 30.0874C66 26.1719 69.1494 22.9977 73.0345 22.9977H75.3793C79.2643 22.9977 82.4138 26.1719 82.4138 30.0874V32.4506C82.4138 36.3661 79.2643 39.5403 75.3793 39.5403H73.0345C69.1494 39.5403 66 36.3661 66 32.4506V30.0874Z" fill="#212121"/>
<path d="M83.5862 30.0874C83.5862 26.1719 86.7357 22.9977 90.6207 22.9977H92.9655C96.8506 22.9977 100 26.1719 100 30.0874V32.4506C100 36.3661 96.8506 39.5403 92.9655 39.5403H90.6207C86.7357 39.5403 83.5862 36.3661 83.5862 32.4506V30.0874Z" fill="#212121"/>
<path d="M75.3793 17.0897C75.3793 13.1741 78.5288 10 82.4138 10H84.7586C88.6437 10 91.7931 13.1741 91.7931 17.0897V19.4529C91.7931 23.3684 88.6437 26.5425 84.7586 26.5425H82.4138C78.5288 26.5425 75.3793 23.3684 75.3793 19.4529V17.0897Z" fill="#212121"/>
<path d="M75.3793 24.1793H91.7931V38.3586H75.3793V24.1793Z" fill="#212121"/>
<path d="M81.2414 30.0874H83.5862V46.6299H81.2414V30.0874Z" fill="#212121"/>
<path d="M81.2155 46.4662C80.9225 45.8843 81.153 45.1731 81.7304 44.8778C82.3079 44.5825 83.0135 44.8149 83.3065 45.3968L84.2564 47.2834C84.5494 47.8654 84.3189 48.5765 83.7414 48.8718C83.164 49.1671 82.4584 48.9348 82.1654 48.3528L81.2155 46.4662Z" fill="#212121"/>
<text fill="black" xml:space="preserve" style="white-space: pre" font-family="Comfortaa" font-size="26" letter-spacing="0em"><tspan x="120" y="40.911">Maksiks</tspan></text>
</svg>
