<svg width="41" height="72" viewBox="0 0 41 72" fill="none" xmlns="http://www.w3.org/2000/svg">
<path fill-rule="evenodd" clip-rule="evenodd" d="M36.2641 62.8078C38.7513 62.8078 41.0001 64.674 41.0001 67.1612V67.5396C41.0001 69.6944 39.4156 71.5563 37.2619 71.624C36.9281 71.6345 36.5955 71.6398 36.2641 71.6398C29.3521 71.6398 23.2081 70.1464 17.8321 67.1598C12.5414 64.0878 8.36011 59.8638 5.28811 54.4878C2.30144 49.1118 0.808105 42.9678 0.808105 36.0558C0.808105 29.0584 2.21611 22.9144 5.03211 17.6238C7.93344 12.2478 11.9014 8.02375 16.9361 4.95175C21.9708 1.87975 27.7734 0.34375 34.3441 0.34375C35.4166 0.34375 36.4657 0.384589 37.4915 0.466266C39.5351 0.62898 41.0001 2.41084 41.0001 4.46088C41.0001 7.25644 38.3178 9.30956 35.5244 9.19886C35.1357 9.18346 34.7423 9.17575 34.3441 9.17575C29.4801 9.17575 25.2134 10.3278 21.5441 12.6318C17.8748 14.9358 15.0161 18.1358 12.9681 22.2318C12.6209 22.9413 12.3044 23.6695 12.0186 24.4164C10.7199 27.8107 13.584 31.0638 17.2182 31.0638H36.9041C39.1663 31.0638 41.0001 32.8976 41.0001 35.1598C41.0001 37.4219 39.1663 39.2558 36.9041 39.2558H16.7615C13.2259 39.2558 10.3835 42.3429 11.5112 45.6938C12.0029 47.1548 12.6165 48.5501 13.3521 49.8798C15.6561 53.8904 18.7708 57.0478 22.6961 59.3518C26.6214 61.6558 31.1441 62.8078 36.2641 62.8078Z" fill="#9100BA"/>
</svg>
