<svg width="1023" height="668" viewBox="0 0 1023 668" fill="none" xmlns="http://www.w3.org/2000/svg">
<path d="M567.5 5.75V3.25H565H47C42.3056 3.25 38.5 7.05555 38.5 11.75V543.357C38.5 548.052 42.3056 551.857 47 551.857H565H567.5V549.357V5.75Z" fill="white" stroke="#212121" stroke-width="5"/>
<path d="M49.5 31C49.5 21.8873 56.8873 14.5 66 14.5H556.051V159.5H66C56.8873 159.5 49.5 152.113 49.5 143V31Z" fill="#212121" stroke="white" stroke-width="17"/>
<path d="M49.5 183C49.5 173.887 56.8873 166.5 66 166.5H556.051V540.5H66C56.8873 540.5 49.5 533.113 49.5 524V183Z" fill="#212121" stroke="white" stroke-width="17"/>
<rect x="518" y="1" width="12" height="555" rx="6" fill="#303030"/>
<path d="M537.091 5.75V3.25H539.591H1011C1015.69 3.25 1019.5 7.05555 1019.5 11.75V543.357C1019.5 548.052 1015.69 551.857 1011 551.857H539.591H537.091V549.357V5.75Z" fill="white" stroke="#212121" stroke-width="5"/>
<path d="M1008.5 37C1008.5 27.8873 1001.11 20.5 992 20.5H548.5V540.5H992C1001.11 540.5 1008.5 533.113 1008.5 524V37Z" fill="#212121" stroke="white" stroke-width="17"/>
<rect x="528" y="1" width="12" height="555" rx="6" fill="#303030"/>
<path d="M521.909 117.75V115.25H519.409H48C43.3056 115.25 39.5 119.056 39.5 123.75V655.357C39.5 660.052 43.3056 663.857 48 663.857H519.409H521.909V661.357V117.75Z" fill="white" stroke="#212121" stroke-width="5"/>
<path d="M50.5 143C50.5 133.887 57.8873 126.5 67 126.5H510.5V271.5H67C57.8873 271.5 50.5 264.113 50.5 255V143Z" fill="#212121" stroke="white" stroke-width="17"/>
<path d="M50.5 295C50.5 285.887 57.8873 278.5 67 278.5H510.5V652.5H67C57.8873 652.5 50.5 645.113 50.5 636V295Z" fill="#212121" stroke="white" stroke-width="17"/>
<rect x="519.409" y="110" width="11.4057" height="558" rx="5.70284" fill="#303030"/>
<path d="M538.091 6V3.5H540.591H1012C1016.69 3.5 1020.5 7.3056 1020.5 12V655.357C1020.5 660.052 1016.69 663.857 1012 663.857H540.591H538.091V661.357V6Z" fill="white" stroke="#212121" stroke-width="5"/>
<path d="M1009.5 31C1009.5 21.8873 1002.11 14.5 993 14.5H549.091V652.857H993C1002.11 652.857 1009.5 645.47 1009.5 636.357V31Z" fill="#212121" stroke="white" stroke-width="17"/>
<rect x="529.186" y="110" width="11.4057" height="558" rx="5.70284" fill="#303030"/>
<path d="M10.5 26.0137V24.6378L11.6625 23.9016L41.9524 4.72022C47.6119 1.13632 55 5.20262 55 11.9014V526.353C55 529.628 53.1184 532.612 50.163 534.023L49.0856 531.767L50.163 534.023L14.0773 551.256L10.5 552.964V549V26.0137Z" fill="white" stroke="#212121" stroke-width="5"/>
<path d="M39.3135 51.0136C39.3135 41.901 31.9262 34.5137 22.8135 34.5137H21.4999V531.257H22.8135C31.9262 531.257 39.3135 523.87 39.3135 514.757V51.0136Z" fill="#212121" stroke="white" stroke-width="17"/>
<path d="M484.5 29V26.5H482H11C6.30558 26.5 2.5 30.3056 2.5 35V573C2.5 577.694 6.30558 581.5 11 581.5H482H484.5V579V29Z" fill="white" stroke="#212121" stroke-width="5"/>
<path d="M13.5 54.0005C13.5 44.8878 20.8873 37.5005 30 37.5005H473.5V182.5H30C20.8873 182.5 13.5 175.113 13.5 166V54.0005Z" fill="#212121" stroke="white" stroke-width="17"/>
<path d="M13.5 206C13.5 196.887 20.8873 189.5 30 189.5H473.5V570.5H30C20.8873 570.5 13.5 563.113 13.5 554V206Z" fill="#212121" stroke="white" stroke-width="17"/>
<rect x="482" y="24.0005" width="12" height="555" rx="6" fill="#303030"/>
<path d="M501.091 28.7505V26.2505H503.591H975C979.694 26.2505 983.5 30.0561 983.5 34.7505V573C983.5 577.694 979.694 581.5 975 581.5H503.591H501.091V579V28.7505Z" fill="white" stroke="#212121" stroke-width="5"/>
<path d="M972.5 53.7505C972.5 44.6378 965.113 37.2505 956 37.2505H512.091V570.5H956C965.113 570.5 972.5 563.113 972.5 554V53.7505Z" fill="#212121" stroke="white" stroke-width="17"/>
<path d="M983.5 28.0005V26.8715L984.347 26.125L1003.88 8.90962C1009.37 4.07146 1018 7.96911 1018 15.2864V548.784C1018 551.63 1016.58 554.287 1014.21 555.863L1012.82 553.785L1014.21 555.863L987.384 573.69L983.5 576.271V571.608V28.0005Z" fill="white" stroke="#212121" stroke-width="5"/>
<path d="M1003.5 53.0005C1003.5 46.5885 999.843 41.0307 994.5 38.2996V551.701C999.843 548.97 1003.5 543.413 1003.5 537V53.0005Z" fill="#212121" stroke="white" stroke-width="13"/>
<rect x="492" y="24.0005" width="12" height="555" rx="6" fill="#303030"/>
</svg>
